{"title":"Trololo Man (Original Mix) by Doctor Werewolf","uid":7909915,"size":5220336,"categoryP":"audio","categoryS":"music","magnet":"?xt=urn:btih:bba0b2647bc128823de160dc63d08c218602aae7&amp;dn=Trololo+Man+%28Original+Mix%29+by+Doctor+Werewolf&amp;tr=udp%3A%2F%2Ftracker.openbittorrent.com%3A80&amp;tr=udp%3A%2F%2Fopen.demonii.com%3A1337&amp;tr=udp%3A%2F%2Ftracker.coppersurfer.tk%3A6969&amp;tr=udp%3A%2F%2Fexodus.desync.com%3A6969","seeders":1,"leechers":0,"uploader":"Xanthippus","files":-1,"time":1355187504,"description":"This torrent contains &quot;Trololo Man (Original Mix)&quot; by Doctor Werewolf, purchased and downloaded from iTunes. Here are more details about the song:\n\nCount                                    : 217\nCount of stream of this kind             : 1\nKind of stream                           : Audio\nKind of stream                           : Audio\nStream identifier                        : 0\nInform                                   : 256 Kbps, 44.1 KHz, 2 channels, MPEG Audio (Version 1) (Layer 3) (Joint stereo)\nFormat                                   : MPEG Audio\nCommercial name                          : MPEG Audio\nFormat version                           : Version 1\nFormat profile                           : Layer 3\nFormat settings                          : Joint stereo\nMode                                     : Joint stereo\nInternet media type                      : audio/mpeg\nCodec                                    : MPA1L3\nCodec                                    : MPEG-1 Audio layer 3\nCodec profile                            : Joint stereo\nDuration                                 : 163004\nDuration                                 : 2mn 43s\nDuration                                 : 2mn 43s 4ms\nDuration                                 : 2mn 43s\nDuration                                 : 00:02:43.004\nBit rate mode                            : CBR\nBit rate mode                            : Constant\nBit rate                                 : 256000\nBit rate                                 : 256 Kbps\nChannel(s)                               : 2\nChannel(s)                               : 2 channels\nSampling rate                            : 44100\nSampling rate                            : 44.1 KHz\nSamples count                            : 7188480\nFrame count                              : 6240\nCompression mode                         : Lossy\nCompression mode                         : Lossy\nStream size                              : 5210279\nStream size                              : 4.97 MiB (100%)\nStream size                              : 5 MiB\nStream size                              : 5.0 MiB\nStream size                              : 4.97 MiB\nStream size                              : 4.969 MiB\nStream size                              : 4.97 MiB (100%)\nProportion of this stream                : 0.99975\nWriting library                          : LAME3.99.5\nWriting library                          : LAME3.99.5\n\nThanks for downloading everyone, and don't forget to seed! Trolololol!\n  _\n ( ((\n   =\n ___ `- \n(____))(  ----\n(____)) _  \n(____))\n(____))____/----","torrent":{"xt":"urn:btih:bba0b2647bc128823de160dc63d08c218602aae7","amp;dn":"Trololo+Man+%28Original+Mix%29+by+Doctor+Werewolf","amp;tr":["udp%3A%2F%2Ftracker.openbittorrent.com%3A80","udp%3A%2F%2Fopen.demonii.com%3A1337","udp%3A%2F%2Ftracker.coppersurfer.tk%3A6969","udp%3A%2F%2Fexodus.desync.com%3A6969"],"infoHash":"bba0b2647bc128823de160dc63d08c218602aae7","infoHashBuffer":{"type":"Buffer","data":[187,160,178,100,123,193,40,130,61,225,96,220,99,208,140,33,134,2,170,231]},"announce":[],"urlList":[]}}